0
SECTION
2
HEADER
9
$INSUNITS
70
4
0
ENDSEC
0
SECTION
2
TABLES
0
TABLE
2
LTYPE
0
LTYPE
72
65
70
0
2
CONTINUOUS
3
______
73
0
40
0
0
LTYPE
72
65
70
0
2
DASHED
3
_ _ _ 
73
2
40
7.5
49
5
49
-2.5
0
LTYPE
72
65
70
0
2
DOTTED
3
. . . 
73
2
40
1.5
49
0.5
49
-1
0
ENDTAB
0
TABLE
2
LAYER
0
ENDTAB
0
ENDSEC
0
SECTION
2
ENTITIES
0
POLYLINE
8
0
6
CONTINUOUS
66
1
70
1
0
VERTEX
8
0
10
-7
20
-6.5
42
0.4142136
0
VERTEX
8
0
10
-6.5
20
-7
0
VERTEX
8
0
10
6.5
20
-7
42
0.4142136
0
VERTEX
8
0
10
7
20
-6.5
0
VERTEX
8
0
10
7
20
6.5
42
0.4142136
0
VERTEX
8
0
10
6.5
20
7
0
VERTEX
8
0
10
-6.5
20
7
42
0.4142136
0
VERTEX
8
0
10
-7
20
6.5
0
SEQEND
0
POLYLINE
8
0
6
CONTINUOUS
66
1
70
1
0
VERTEX
8
0
10
17.765
20
-6.5
42
0.4142136
0
VERTEX
8
0
10
18.265
20
-7
0
VERTEX
8
0
10
31.265
20
-7
42
0.4142136
0
VERTEX
8
0
10
31.765
20
-6.5
0
VERTEX
8
0
10
31.765
20
6.5
42
0.4142136
0
VERTEX
8
0
10
31.265
20
7
0
VERTEX
8
0
10
18.265
20
7
42
0.4142136
0
VERTEX
8
0
10
17.765
20
6.5
0
SEQEND
0
POLYLINE
8
0
6
CONTINUOUS
66
1
70
1
0
VERTEX
8
0
10
36.815
20
-6.5
42
0.4142136
0
VERTEX
8
0
10
37.315
20
-7
0
VERTEX
8
0
10
50.315
20
-7
42
0.4142136
0
VERTEX
8
0
10
50.815
20
-6.5
0
VERTEX
8
0
10
50.815
20
6.5
42
0.4142136
0
VERTEX
8
0
10
50.315
20
7
0
VERTEX
8
0
10
37.315
20
7
42
0.4142136
0
VERTEX
8
0
10
36.815
20
6.5
0
SEQEND
0
POLYLINE
8
0
6
CONTINUOUS
66
1
70
1
0
VERTEX
8
0
10
241.6025
20
-6.5
42
0.4142136
0
VERTEX
8
0
10
242.1025
20
-7
0
VERTEX
8
0
10
255.1025
20
-7
42
0.4142136
0
VERTEX
8
0
10
255.6025
20
-6.5
0
VERTEX
8
0
10
255.6025
20
6.5
42
0.4142136
0
VERTEX
8
0
10
255.1025
20
7
0
VERTEX
8
0
10
242.1025
20
7
42
0.4142136
0
VERTEX
8
0
10
241.6025
20
6.5
0
SEQEND
0
POLYLINE
8
0
6
CONTINUOUS
66
1
70
1
0
VERTEX
8
0
10
260.6525
20
-6.5
42
0.4142136
0
VERTEX
8
0
10
261.1525
20
-7
0
VERTEX
8
0
10
274.1525
20
-7
42
0.4142136
0
VERTEX
8
0
10
274.6525
20
-6.5
0
VERTEX
8
0
10
274.6525
20
6.5
42
0.4142136
0
VERTEX
8
0
10
274.1525
20
7
0
VERTEX
8
0
10
261.1525
20
7
42
0.4142136
0
VERTEX
8
0
10
260.6525
20
6.5
0
SEQEND
0
POLYLINE
8
0
6
CONTINUOUS
66
1
70
1
0
VERTEX
8
0
10
284.465
20
-6.5
42
0.4142136
0
VERTEX
8
0
10
284.965
20
-7
0
VERTEX
8
0
10
297.965
20
-7
42
0.4142136
0
VERTEX
8
0
10
298.465
20
-6.5
0
VERTEX
8
0
10
298.465
20
6.5
42
0.4142136
0
VERTEX
8
0
10
297.965
20
7
0
VERTEX
8
0
10
284.965
20
7
42
0.4142136
0
VERTEX
8
0
10
284.465
20
6.5
0
SEQEND
0
POLYLINE
8
0
6
CONTINUOUS
66
1
70
1
0
VERTEX
8
0
10
303.515
20
-6.5
42
0.4142136
0
VERTEX
8
0
10
304.015
20
-7
0
VERTEX
8
0
10
317.015
20
-7
42
0.4142136
0
VERTEX
8
0
10
317.515
20
-6.5
0
VERTEX
8
0
10
317.515
20
6.5
42
0.4142136
0
VERTEX
8
0
10
317.015
20
7
0
VERTEX
8
0
10
304.015
20
7
42
0.4142136
0
VERTEX
8
0
10
303.515
20
6.5
0
SEQEND
0
POLYLINE
8
0
6
CONTINUOUS
66
1
70
1
0
VERTEX
8
0
10
41.5775
20
-28.4075
42
0.4142136
0
VERTEX
8
0
10
42.0775
20
-28.9075
0
VERTEX
8
0
10
55.0775
20
-28.9075
42
0.4142136
0
VERTEX
8
0
10
55.5775
20
-28.4075
0
VERTEX
8
0
10
55.5775
20
-15.4075
42
0.4142136
0
VERTEX
8
0
10
55.0775
20
-14.9075
0
VERTEX
8
0
10
42.0775
20
-14.9075
42
0.4142136
0
VERTEX
8
0
10
41.5775
20
-15.4075
0
SEQEND
0
POLYLINE
8
0
6
CONTINUOUS
66
1
70
1
0
VERTEX
8
0
10
240.65
20
-28.4075
42
0.4142136
0
VERTEX
8
0
10
241.15
20
-28.9075
0
VERTEX
8
0
10
254.15
20
-28.9075
42
0.4142136
0
VERTEX
8
0
10
254.65
20
-28.4075
0
VERTEX
8
0
10
254.65
20
-15.4075
42
0.4142136
0
VERTEX
8
0
10
254.15
20
-14.9075
0
VERTEX
8
0
10
241.15
20
-14.9075
42
0.4142136
0
VERTEX
8
0
10
240.65
20
-15.4075
0
SEQEND
0
POLYLINE
8
0
6
CONTINUOUS
66
1
70
1
0
VERTEX
8
0
10
3.4775
20
-31.265
42
0.4142136
0
VERTEX
8
0
10
3.9775
20
-31.765
0
VERTEX
8
0
10
16.9775
20
-31.765
42
0.4142136
0
VERTEX
8
0
10
17.4775
20
-31.265
0
VERTEX
8
0
10
17.4775
20
-18.265
42
0.4142136
0
VERTEX
8
0
10
16.9775
20
-17.765
0
VERTEX
8
0
10
3.9775
20
-17.765
42
0.4142136
0
VERTEX
8
0
10
3.4775
20
-18.265
0
SEQEND
0
POLYLINE
8
0
6
CONTINUOUS
66
1
70
1
0
VERTEX
8
0
10
22.5275
20
-31.265
42
0.4142136
0
VERTEX
8
0
10
23.0275
20
-31.765
0
VERTEX
8
0
10
36.0275
20
-31.765
42
0.4142136
0
VERTEX
8
0
10
36.5275
20
-31.265
0
VERTEX
8
0
10
36.5275
20
-18.265
42
0.4142136
0
VERTEX
8
0
10
36.0275
20
-17.765
0
VERTEX
8
0
10
23.0275
20
-17.765
42
0.4142136
0
VERTEX
8
0
10
22.5275
20
-18.265
0
SEQEND
0
POLYLINE
8
0
6
CONTINUOUS
66
1
70
1
0
VERTEX
8
0
10
259.7
20
-31.265
42
0.4142136
0
VERTEX
8
0
10
260.2
20
-31.765
0
VERTEX
8
0
10
273.2
20
-31.765
42
0.4142136
0
VERTEX
8
0
10
273.7
20
-31.265
0
VERTEX
8
0
10
273.7
20
-18.265
42
0.4142136
0
VERTEX
8
0
10
273.2
20
-17.765
0
VERTEX
8
0
10
260.2
20
-17.765
42
0.4142136
0
VERTEX
8
0
10
259.7
20
-18.265
0
SEQEND
0
POLYLINE
8
0
6
CONTINUOUS
66
1
70
1
0
VERTEX
8
0
10
288.275
20
-31.265
42
0.4142136
0
VERTEX
8
0
10
288.775
20
-31.765
0
VERTEX
8
0
10
301.775
20
-31.765
42
0.4142136
0
VERTEX
8
0
10
302.275
20
-31.265
0
VERTEX
8
0
10
302.275
20
-18.265
42
0.4142136
0
VERTEX
8
0
10
301.775
20
-17.765
0
VERTEX
8
0
10
288.775
20
-17.765
42
0.4142136
0
VERTEX
8
0
10
288.275
20
-18.265
0
SEQEND
0
POLYLINE
8
0
6
CONTINUOUS
66
1
70
1
0
VERTEX
8
0
10
332.09
20
-31.265
42
0.4142136
0
VERTEX
8
0
10
332.59
20
-31.765
0
VERTEX
8
0
10
345.59
20
-31.765
42
0.4142136
0
VERTEX
8
0
10
346.09
20
-31.265
0
VERTEX
8
0
10
346.09
20
-18.265
42
0.4142136
0
VERTEX
8
0
10
345.59
20
-17.765
0
VERTEX
8
0
10
332.59
20
-17.765
42
0.4142136
0
VERTEX
8
0
10
332.09
20
-18.265
0
SEQEND
0
POLYLINE
8
0
6
CONTINUOUS
66
1
70
1
0
VERTEX
8
0
10
351.14
20
-31.265
42
0.4142136
0
VERTEX
8
0
10
351.64
20
-31.765
0
VERTEX
8
0
10
364.64
20
-31.765
42
0.4142136
0
VERTEX
8
0
10
365.14
20
-31.265
0
VERTEX
8
0
10
365.14
20
-18.265
42
0.4142136
0
VERTEX
8
0
10
364.64
20
-17.765
0
VERTEX
8
0
10
351.64
20
-17.765
42
0.4142136
0
VERTEX
8
0
10
351.14
20
-18.265
0
SEQEND
0
POLYLINE
8
0
6
CONTINUOUS
66
1
70
1
0
VERTEX
8
0
10
3.4775
20
-50.315
42
0.4142136
0
VERTEX
8
0
10
3.9775
20
-50.815
0
VERTEX
8
0
10
16.9775
20
-50.815
42
0.4142136
0
VERTEX
8
0
10
17.4775
20
-50.315
0
VERTEX
8
0
10
17.4775
20
-37.315
42
0.4142136
0
VERTEX
8
0
10
16.9775
20
-36.815
0
VERTEX
8
0
10
3.9775
20
-36.815
42
0.4142136
0
VERTEX
8
0
10
3.4775
20
-37.315
0
SEQEND
0
POLYLINE
8
0
6
CONTINUOUS
66
1
70
1
0
VERTEX
8
0
10
27.29
20
-50.315
42
0.4142136
0
VERTEX
8
0
10
27.79
20
-50.815
0
VERTEX
8
0
10
40.79
20
-50.815
42
0.4142136
0
VERTEX
8
0
10
41.29
20
-50.315
0
VERTEX
8
0
10
41.29
20
-37.315
42
0.4142136
0
VERTEX
8
0
10
40.79
20
-36.815
0
VERTEX
8
0
10
27.79
20
-36.815
42
0.4142136
0
VERTEX
8
0
10
27.29
20
-37.315
0
SEQEND
0
POLYLINE
8
0
6
CONTINUOUS
66
1
70
1
0
VERTEX
8
0
10
254.9375
20
-50.315
42
0.4142136
0
VERTEX
8
0
10
255.4375
20
-50.815
0
VERTEX
8
0
10
268.4375
20
-50.815
42
0.4142136
0
VERTEX
8
0
10
268.9375
20
-50.315
0
VERTEX
8
0
10
268.9375
20
-37.315
42
0.4142136
0
VERTEX
8
0
10
268.4375
20
-36.815
0
VERTEX
8
0
10
255.4375
20
-36.815
42
0.4142136
0
VERTEX
8
0
10
254.9375
20
-37.315
0
SEQEND
0
POLYLINE
8
0
6
CONTINUOUS
66
1
70
1
0
VERTEX
8
0
10
273.9875
20
-50.315
42
0.4142136
0
VERTEX
8
0
10
274.4875
20
-50.815
0
VERTEX
8
0
10
287.4875
20
-50.815
42
0.4142136
0
VERTEX
8
0
10
287.9875
20
-50.315
0
VERTEX
8
0
10
287.9875
20
-37.315
42
0.4142136
0
VERTEX
8
0
10
287.4875
20
-36.815
0
VERTEX
8
0
10
274.4875
20
-36.815
42
0.4142136
0
VERTEX
8
0
10
273.9875
20
-37.315
0
SEQEND
0
POLYLINE
8
0
6
CONTINUOUS
66
1
70
1
0
VERTEX
8
0
10
297.8
20
-50.315
42
0.4142136
0
VERTEX
8
0
10
298.3
20
-50.815
0
VERTEX
8
0
10
311.3
20
-50.815
42
0.4142136
0
VERTEX
8
0
10
311.8
20
-50.315
0
VERTEX
8
0
10
311.8
20
-37.315
42
0.4142136
0
VERTEX
8
0
10
311.3
20
-36.815
0
VERTEX
8
0
10
298.3
20
-36.815
42
0.4142136
0
VERTEX
8
0
10
297.8
20
-37.315
0
SEQEND
0
POLYLINE
8
0
6
CONTINUOUS
66
1
70
1
0
VERTEX
8
0
10
332.09
20
-50.315
42
0.4142136
0
VERTEX
8
0
10
332.59
20
-50.815
0
VERTEX
8
0
10
345.59
20
-50.815
42
0.4142136
0
VERTEX
8
0
10
346.09
20
-50.315
0
VERTEX
8
0
10
346.09
20
-37.315
42
0.4142136
0
VERTEX
8
0
10
345.59
20
-36.815
0
VERTEX
8
0
10
332.59
20
-36.815
42
0.4142136
0
VERTEX
8
0
10
332.09
20
-37.315
0
SEQEND
0
POLYLINE
8
0
6
CONTINUOUS
66
1
70
1
0
VERTEX
8
0
10
351.14
20
-50.315
42
0.4142136
0
VERTEX
8
0
10
351.64
20
-50.815
0
VERTEX
8
0
10
364.64
20
-50.815
42
0.4142136
0
VERTEX
8
0
10
365.14
20
-50.315
0
VERTEX
8
0
10
365.14
20
-37.315
42
0.4142136
0
VERTEX
8
0
10
364.64
20
-36.815
0
VERTEX
8
0
10
351.64
20
-36.815
42
0.4142136
0
VERTEX
8
0
10
351.14
20
-37.315
0
SEQEND
0
POLYLINE
8
0
6
CONTINUOUS
66
1
70
1
0
VERTEX
8
0
10
-3.66625
20
-69.365
42
0.4142136
0
VERTEX
8
0
10
-3.16625
20
-69.865
0
VERTEX
8
0
10
9.83375
20
-69.865
42
0.4142136
0
VERTEX
8
0
10
10.33375
20
-69.365
0
VERTEX
8
0
10
10.33375
20
-56.365
42
0.4142136
0
VERTEX
8
0
10
9.83375
20
-55.865
0
VERTEX
8
0
10
-3.16625
20
-55.865
42
0.4142136
0
VERTEX
8
0
10
-3.66625
20
-56.365
0
SEQEND
0
POLYLINE
8
0
6
CONTINUOUS
66
1
70
1
0
VERTEX
8
0
10
27.29
20
-69.365
42
0.4142136
0
VERTEX
8
0
10
27.79
20
-69.865
0
VERTEX
8
0
10
40.79
20
-69.865
42
0.4142136
0
VERTEX
8
0
10
41.29
20
-69.365
0
VERTEX
8
0
10
41.29
20
-56.365
42
0.4142136
0
VERTEX
8
0
10
40.79
20
-55.865
0
VERTEX
8
0
10
27.79
20
-55.865
42
0.4142136
0
VERTEX
8
0
10
27.29
20
-56.365
0
SEQEND
0
POLYLINE
8
0
6
CONTINUOUS
66
1
70
1
0
VERTEX
8
0
10
245.4125
20
-69.365
42
0.4142136
0
VERTEX
8
0
10
245.9125
20
-69.865
0
VERTEX
8
0
10
258.9125
20
-69.865
42
0.4142136
0
VERTEX
8
0
10
259.4125
20
-69.365
0
VERTEX
8
0
10
259.4125
20
-56.365
42
0.4142136
0
VERTEX
8
0
10
258.9125
20
-55.865
0
VERTEX
8
0
10
245.9125
20
-55.865
42
0.4142136
0
VERTEX
8
0
10
245.4125
20
-56.365
0
SEQEND
0
POLYLINE
8
0
6
CONTINUOUS
66
1
70
1
0
VERTEX
8
0
10
264.4625
20
-69.365
42
0.4142136
0
VERTEX
8
0
10
264.9625
20
-69.865
0
VERTEX
8
0
10
277.9625
20
-69.865
42
0.4142136
0
VERTEX
8
0
10
278.4625
20
-69.365
0
VERTEX
8
0
10
278.4625
20
-56.365
42
0.4142136
0
VERTEX
8
0
10
277.9625
20
-55.865
0
VERTEX
8
0
10
264.9625
20
-55.865
42
0.4142136
0
VERTEX
8
0
10
264.4625
20
-56.365
0
SEQEND
0
POLYLINE
8
0
6
CONTINUOUS
66
1
70
1
0
VERTEX
8
0
10
295.41875
20
-69.365
42
0.4142136
0
VERTEX
8
0
10
295.91875
20
-69.865
0
VERTEX
8
0
10
308.91875
20
-69.865
42
0.4142136
0
VERTEX
8
0
10
309.41875
20
-69.365
0
VERTEX
8
0
10
309.41875
20
-56.365
42
0.4142136
0
VERTEX
8
0
10
308.91875
20
-55.865
0
VERTEX
8
0
10
295.91875
20
-55.865
42
0.4142136
0
VERTEX
8
0
10
295.41875
20
-56.365
0
SEQEND
0
POLYLINE
8
0
6
CONTINUOUS
66
1
70
1
0
VERTEX
8
0
10
332.09
20
-69.365
42
0.4142136
0
VERTEX
8
0
10
332.59
20
-69.865
0
VERTEX
8
0
10
345.59
20
-69.865
42
0.4142136
0
VERTEX
8
0
10
346.09
20
-69.365
0
VERTEX
8
0
10
346.09
20
-56.365
42
0.4142136
0
VERTEX
8
0
10
345.59
20
-55.865
0
VERTEX
8
0
10
332.59
20
-55.865
42
0.4142136
0
VERTEX
8
0
10
332.09
20
-56.365
0
SEQEND
0
POLYLINE
8
0
6
CONTINUOUS
66
1
70
1
0
VERTEX
8
0
10
351.14
20
-69.365
42
0.4142136
0
VERTEX
8
0
10
351.64
20
-69.865
0
VERTEX
8
0
10
364.64
20
-69.865
42
0.4142136
0
VERTEX
8
0
10
365.14
20
-69.365
0
VERTEX
8
0
10
365.14
20
-56.365
42
0.4142136
0
VERTEX
8
0
10
364.64
20
-55.865
0
VERTEX
8
0
10
351.64
20
-55.865
42
0.4142136
0
VERTEX
8
0
10
351.14
20
-56.365
0
SEQEND
0
POLYLINE
8
0
6
CONTINUOUS
66
1
70
1
0
VERTEX
8
0
10
1.09625
20
-88.415
42
0.4142136
0
VERTEX
8
0
10
1.59625
20
-88.915
0
VERTEX
8
0
10
14.59625
20
-88.915
42
0.4142136
0
VERTEX
8
0
10
15.09625
20
-88.415
0
VERTEX
8
0
10
15.09625
20
-75.415
42
0.4142136
0
VERTEX
8
0
10
14.59625
20
-74.915
0
VERTEX
8
0
10
1.59625
20
-74.915
42
0.4142136
0
VERTEX
8
0
10
1.09625
20
-75.415
0
SEQEND
0
POLYLINE
8
0
6
CONTINUOUS
66
1
70
1
0
VERTEX
8
0
10
32.0525
20
-88.415
42
0.4142136
0
VERTEX
8
0
10
32.5525
20
-88.915
0
VERTEX
8
0
10
45.5525
20
-88.915
42
0.4142136
0
VERTEX
8
0
10
46.0525
20
-88.415
0
VERTEX
8
0
10
46.0525
20
-75.415
42
0.4142136
0
VERTEX
8
0
10
45.5525
20
-74.915
0
VERTEX
8
0
10
32.5525
20
-74.915
42
0.4142136
0
VERTEX
8
0
10
32.0525
20
-75.415
0
SEQEND
0
POLYLINE
8
0
6
CONTINUOUS
66
1
70
1
0
VERTEX
8
0
10
254.9375
20
-88.415
42
0.4142136
0
VERTEX
8
0
10
255.4375
20
-88.915
0
VERTEX
8
0
10
268.4375
20
-88.915
42
0.4142136
0
VERTEX
8
0
10
268.9375
20
-88.415
0
VERTEX
8
0
10
268.9375
20
-75.415
42
0.4142136
0
VERTEX
8
0
10
268.4375
20
-74.915
0
VERTEX
8
0
10
255.4375
20
-74.915
42
0.4142136
0
VERTEX
8
0
10
254.9375
20
-75.415
0
SEQEND
0
POLYLINE
8
0
6
CONTINUOUS
66
1
70
1
0
VERTEX
8
0
10
281.13125
20
-88.415
42
0.4142136
0
VERTEX
8
0
10
281.63125
20
-88.915
0
VERTEX
8
0
10
294.63125
20
-88.915
42
0.4142136
0
VERTEX
8
0
10
295.13125
20
-88.415
0
VERTEX
8
0
10
295.13125
20
-75.415
42
0.4142136
0
VERTEX
8
0
10
294.63125
20
-74.915
0
VERTEX
8
0
10
281.63125
20
-74.915
42
0.4142136
0
VERTEX
8
0
10
281.13125
20
-75.415
0
SEQEND
0
POLYLINE
8
0
6
CONTINUOUS
66
1
70
1
0
VERTEX
8
0
10
312.0875
20
-93.1775
42
0.4142136
0
VERTEX
8
0
10
312.5875
20
-93.6775
0
VERTEX
8
0
10
325.5875
20
-93.6775
42
0.4142136
0
VERTEX
8
0
10
326.0875
20
-93.1775
0
VERTEX
8
0
10
326.0875
20
-80.1775
42
0.4142136
0
VERTEX
8
0
10
325.5875
20
-79.6775
0
VERTEX
8
0
10
312.5875
20
-79.6775
42
0.4142136
0
VERTEX
8
0
10
312.0875
20
-80.1775
0
SEQEND
0
POLYLINE
8
0
6
CONTINUOUS
66
1
70
1
0
VERTEX
8
0
10
141.59
20
-102.7025
42
0.4142136
0
VERTEX
8
0
10
142.09
20
-103.2025
0
VERTEX
8
0
10
155.09
20
-103.2025
42
0.4142136
0
VERTEX
8
0
10
155.59
20
-102.7025
0
VERTEX
8
0
10
155.59
20
-89.7025
42
0.4142136
0
VERTEX
8
0
10
155.09
20
-89.2025
0
VERTEX
8
0
10
142.09
20
-89.2025
42
0.4142136
0
VERTEX
8
0
10
141.59
20
-89.7025
0
SEQEND
0
POLYLINE
8
0
6
CONTINUOUS
66
1
70
1
0
VERTEX
8
0
10
-6.0475
20
-107.465
42
0.4142136
0
VERTEX
8
0
10
-5.5475
20
-107.965
0
VERTEX
8
0
10
7.4525
20
-107.965
42
0.4142136
0
VERTEX
8
0
10
7.9525
20
-107.465
0
VERTEX
8
0
10
7.9525
20
-94.465
42
0.4142136
0
VERTEX
8
0
10
7.4525
20
-93.965
0
VERTEX
8
0
10
-5.5475
20
-93.965
42
0.4142136
0
VERTEX
8
0
10
-6.0475
20
-94.465
0
SEQEND
0
POLYLINE
8
0
6
CONTINUOUS
66
1
70
1
0
VERTEX
8
0
10
22.5275
20
-107.465
42
0.4142136
0
VERTEX
8
0
10
23.0275
20
-107.965
0
VERTEX
8
0
10
36.0275
20
-107.965
42
0.4142136
0
VERTEX
8
0
10
36.5275
20
-107.465
0
VERTEX
8
0
10
36.5275
20
-94.465
42
0.4142136
0
VERTEX
8
0
10
36.0275
20
-93.965
0
VERTEX
8
0
10
23.0275
20
-93.965
42
0.4142136
0
VERTEX
8
0
10
22.5275
20
-94.465
0
SEQEND
0
POLYLINE
8
0
6
CONTINUOUS
66
1
70
1
0
VERTEX
8
0
10
260.6525
20
-107.465
42
0.4142136
0
VERTEX
8
0
10
261.1525
20
-107.965
0
VERTEX
8
0
10
274.1525
20
-107.965
42
0.4142136
0
VERTEX
8
0
10
274.6525
20
-107.465
0
VERTEX
8
0
10
274.6525
20
-94.465
42
0.4142136
0
VERTEX
8
0
10
274.1525
20
-93.965
0
VERTEX
8
0
10
261.1525
20
-93.965
42
0.4142136
0
VERTEX
8
0
10
260.6525
20
-94.465
0
SEQEND
0
POLYLINE
8
0
6
CONTINUOUS
66
1
70
1
0
VERTEX
8
0
10
293.0375
20
-112.2275
42
0.4142136
0
VERTEX
8
0
10
293.5375
20
-112.7275
0
VERTEX
8
0
10
306.5375
20
-112.7275
42
0.4142136
0
VERTEX
8
0
10
307.0375
20
-112.2275
0
VERTEX
8
0
10
307.0375
20
-99.2275
42
0.4142136
0
VERTEX
8
0
10
306.5375
20
-98.7275
0
VERTEX
8
0
10
293.5375
20
-98.7275
42
0.4142136
0
VERTEX
8
0
10
293.0375
20
-99.2275
0
SEQEND
0
POLYLINE
8
0
6
CONTINUOUS
66
1
70
1
0
VERTEX
8
0
10
312.0875
20
-112.2275
42
0.4142136
0
VERTEX
8
0
10
312.5875
20
-112.7275
0
VERTEX
8
0
10
325.5875
20
-112.7275
42
0.4142136
0
VERTEX
8
0
10
326.0875
20
-112.2275
0
VERTEX
8
0
10
326.0875
20
-99.2275
42
0.4142136
0
VERTEX
8
0
10
325.5875
20
-98.7275
0
VERTEX
8
0
10
312.5875
20
-98.7275
42
0.4142136
0
VERTEX
8
0
10
312.0875
20
-99.2275
0
SEQEND
0
POLYLINE
8
0
6
CONTINUOUS
66
1
70
1
0
VERTEX
8
0
10
331.1375
20
-112.2275
42
0.4142136
0
VERTEX
8
0
10
331.6375
20
-112.7275
0
VERTEX
8
0
10
344.6375
20
-112.7275
42
0.4142136
0
VERTEX
8
0
10
345.1375
20
-112.2275
0
VERTEX
8
0
10
345.1375
20
-99.2275
42
0.4142136
0
VERTEX
8
0
10
344.6375
20
-98.7275
0
VERTEX
8
0
10
331.6375
20
-98.7275
42
0.4142136
0
VERTEX
8
0
10
331.1375
20
-99.2275
0
SEQEND
0
POLYLINE
8
0
6
CONTINUOUS
66
1
70
1
0
VERTEX
8
0
10
161.1791057
20
-22.3596549
42
0.4142136
0
VERTEX
8
0
10
161.7721353
20
-22.7447729
0
VERTEX
8
0
10
174.4880541
20
-20.0419209
42
0.4142136
0
VERTEX
8
0
10
174.8731721
20
-19.4488913
0
VERTEX
8
0
10
172.1703201
20
-6.7329725
42
0.4142136
0
VERTEX
8
0
10
171.5772905
20
-6.3478545
0
VERTEX
8
0
10
158.8613717
20
-9.0507065
42
0.4142136
0
VERTEX
8
0
10
158.4762537
20
-9.6437361
0
SEQEND
0
POLYLINE
8
0
6
CONTINUOUS
66
1
70
1
0
VERTEX
8
0
10
179.8128175
20
-18.3989372
42
0.4142136
0
VERTEX
8
0
10
180.4058471
20
-18.7840552
0
VERTEX
8
0
10
193.1217659
20
-16.0812032
42
0.4142136
0
VERTEX
8
0
10
193.5068839
20
-15.4881736
0
VERTEX
8
0
10
190.8040319
20
-2.7722548
42
0.4142136
0
VERTEX
8
0
10
190.2110023
20
-2.3871368
0
VERTEX
8
0
10
177.4950835
20
-5.0899888
42
0.4142136
0
VERTEX
8
0
10
177.1099655
20
-5.6830184
0
SEQEND
0
POLYLINE
8
0
6
CONTINUOUS
66
1
70
1
0
VERTEX
8
0
10
198.4465293
20
-14.4382195
42
0.4142136
0
VERTEX
8
0
10
199.0395589
20
-14.8233375
0
VERTEX
8
0
10
211.7554777
20
-12.1204855
42
0.4142136
0
VERTEX
8
0
10
212.1405957
20
-11.5274559
0
VERTEX
8
0
10
209.4377437
20
1.1884629
42
0.4142136
0
VERTEX
8
0
10
208.8447141
20
1.5735809
0
VERTEX
8
0
10
196.1287953
20
-1.1292711
42
0.4142136
0
VERTEX
8
0
10
195.7436773
20
-1.7223007
0
SEQEND
0
POLYLINE
8
0
6
CONTINUOUS
66
1
70
1
0
VERTEX
8
0
10
217.0802411
20
-10.4775018
42
0.4142136
0
VERTEX
8
0
10
217.6732707
20
-10.8626198
0
VERTEX
8
0
10
230.3891895
20
-8.1597678
42
0.4142136
0
VERTEX
8
0
10
230.7743075
20
-7.5667382
0
VERTEX
8
0
10
228.0714555
20
5.1491806
42
0.4142136
0
VERTEX
8
0
10
227.4784259
20
5.5342986
0
VERTEX
8
0
10
214.7625071
20
2.8314466
42
0.4142136
0
VERTEX
8
0
10
214.3773891
20
2.238417
0
SEQEND
0
POLYLINE
8
0
6
CONTINUOUS
66
1
70
1
0
VERTEX
8
0
10
66.2661505
20
-8.4044599
42
0.4142136
0
VERTEX
8
0
10
66.6512685
20
-8.9974895
0
VERTEX
8
0
10
79.3671873
20
-11.7003415
42
0.4142136
0
VERTEX
8
0
10
79.9602169
20
-11.3152235
0
VERTEX
8
0
10
82.6630689
20
1.4006953
42
0.4142136
0
VERTEX
8
0
10
82.2779509
20
1.9937249
0
VERTEX
8
0
10
69.5620321
20
4.6965769
42
0.4142136
0
VERTEX
8
0
10
68.9690025
20
4.3114589
0
SEQEND
0
POLYLINE
8
0
6
CONTINUOUS
66
1
70
1
0
VERTEX
8
0
10
84.8998623
20
-12.3651776
42
0.4142136
0
VERTEX
8
0
10
85.2849803
20
-12.9582072
0
VERTEX
8
0
10
98.0008991
20
-15.6610592
42
0.4142136
0
VERTEX
8
0
10
98.5939287
20
-15.2759412
0
VERTEX
8
0
10
101.2967807
20
-2.5600224
42
0.4142136
0
VERTEX
8
0
10
100.9116627
20
-1.9669928
0
VERTEX
8
0
10
88.1957439
20
0.7358592
42
0.4142136
0
VERTEX
8
0
10
87.6027143
20
0.3507412
0
SEQEND
0
POLYLINE
8
0
6
CONTINUOUS
66
1
70
1
0
VERTEX
8
0
10
103.5335741
20
-16.3258953
42
0.4142136
0
VERTEX
8
0
10
103.9186921
20
-16.9189249
0
VERTEX
8
0
10
116.6346109
20
-19.6217769
42
0.4142136
0
VERTEX
8
0
10
117.2276405
20
-19.2366589
0
VERTEX
8
0
10
119.9304925
20
-6.5207401
42
0.4142136
0
VERTEX
8
0
10
119.5453745
20
-5.9277105
0
VERTEX
8
0
10
106.8294557
20
-3.2248585
42
0.4142136
0
VERTEX
8
0
10
106.2364261
20
-3.6099765
0
SEQEND
0
POLYLINE
8
0
6
CONTINUOUS
66
1
70
1
0
VERTEX
8
0
10
122.1672859
20
-20.2866131
42
0.4142136
0
VERTEX
8
0
10
122.5524039
20
-20.8796427
0
VERTEX
8
0
10
135.2683227
20
-23.5824947
42
0.4142136
0
VERTEX
8
0
10
135.8613523
20
-23.1973767
0
VERTEX
8
0
10
138.5642043
20
-10.4814579
42
0.4142136
0
VERTEX
8
0
10
138.1790863
20
-9.8884283
0
VERTEX
8
0
10
125.4631675
20
-7.1855763
42
0.4142136
0
VERTEX
8
0
10
124.8701379
20
-7.5706943
0
SEQEND
0
POLYLINE
8
0
6
CONTINUOUS
66
1
70
1
0
VERTEX
8
0
10
166.1300028
20
-45.6517946
42
0.4142136
0
VERTEX
8
0
10
166.7230324
20
-46.0369126
0
VERTEX
8
0
10
179.4389512
20
-43.3340606
42
0.4142136
0
VERTEX
8
0
10
179.8240692
20
-42.741031
0
VERTEX
8
0
10
177.1212172
20
-30.0251122
42
0.4142136
0
VERTEX
8
0
10
176.5281876
20
-29.6399942
0
VERTEX
8
0
10
163.8122688
20
-32.3428462
42
0.4142136
0
VERTEX
8
0
10
163.4271508
20
-32.9358758
0
SEQEND
0
POLYLINE
8
0
6
CONTINUOUS
66
1
70
1
0
VERTEX
8
0
10
184.7637146
20
-41.6910769
42
0.4142136
0
VERTEX
8
0
10
185.3567442
20
-42.0761949
0
VERTEX
8
0
10
198.072663
20
-39.3733429
42
0.4142136
0
VERTEX
8
0
10
198.457781
20
-38.7803133
0
VERTEX
8
0
10
195.754929
20
-26.0643945
42
0.4142136
0
VERTEX
8
0
10
195.1618994
20
-25.6792765
0
VERTEX
8
0
10
182.4459806
20
-28.3821285
42
0.4142136
0
VERTEX
8
0
10
182.0608626
20
-28.9751581
0
SEQEND
0
POLYLINE
8
0
6
CONTINUOUS
66
1
70
1
0
VERTEX
8
0
10
203.3974264
20
-37.7303592
42
0.4142136
0
VERTEX
8
0
10
203.990456
20
-38.1154772
0
VERTEX
8
0
10
216.7063748
20
-35.4126252
42
0.4142136
0
VERTEX
8
0
10
217.0914928
20
-34.8195956
0
VERTEX
8
0
10
214.3886408
20
-22.1036768
42
0.4142136
0
VERTEX
8
0
10
213.7956112
20
-21.7185588
0
VERTEX
8
0
10
201.0796924
20
-24.4214108
42
0.4142136
0
VERTEX
8
0
10
200.6945744
20
-25.0144404
0
SEQEND
0
POLYLINE
8
0
6
CONTINUOUS
66
1
70
1
0
VERTEX
8
0
10
222.0311382
20
-33.7696415
42
0.4142136
0
VERTEX
8
0
10
222.6241678
20
-34.1547595
0
VERTEX
8
0
10
235.3400866
20
-31.4519075
42
0.4142136
0
VERTEX
8
0
10
235.7252046
20
-30.8588779
0
VERTEX
8
0
10
233.0223526
20
-18.1429591
42
0.4142136
0
VERTEX
8
0
10
232.429323
20
-17.7578411
0
VERTEX
8
0
10
219.7134042
20
-20.4606931
42
0.4142136
0
VERTEX
8
0
10
219.3282862
20
-21.0537227
0
SEQEND
0
POLYLINE
8
0
6
CONTINUOUS
66
1
70
1
0
VERTEX
8
0
10
61.3152534
20
-31.6965997
42
0.4142136
0
VERTEX
8
0
10
61.7003714
20
-32.2896293
0
VERTEX
8
0
10
74.4162902
20
-34.9924813
42
0.4142136
0
VERTEX
8
0
10
75.0093198
20
-34.6073633
0
VERTEX
8
0
10
77.7121718
20
-21.8914445
42
0.4142136
0
VERTEX
8
0
10
77.3270538
20
-21.2984149
0
VERTEX
8
0
10
64.611135
20
-18.5955629
42
0.4142136
0
VERTEX
8
0
10
64.0181054
20
-18.9806809
0
SEQEND
0
POLYLINE
8
0
6
CONTINUOUS
66
1
70
1
0
VERTEX
8
0
10
79.9489651
20
-35.6573174
42
0.4142136
0
VERTEX
8
0
10
80.3340831
20
-36.250347
0
VERTEX
8
0
10
93.0500019
20
-38.953199
42
0.4142136
0
VERTEX
8
0
10
93.6430315
20
-38.568081
0
VERTEX
8
0
10
96.3458835
20
-25.8521622
42
0.4142136
0
VERTEX
8
0
10
95.9607655
20
-25.2591326
0
VERTEX
8
0
10
83.2448467
20
-22.5562806
42
0.4142136
0
VERTEX
8
0
10
82.6518171
20
-22.9413986
0
SEQEND
0
POLYLINE
8
0
6
CONTINUOUS
66
1
70
1
0
VERTEX
8
0
10
98.5826769
20
-39.6180351
42
0.4142136
0
VERTEX
8
0
10
98.9677949
20
-40.2110647
0
VERTEX
8
0
10
111.6837137
20
-42.9139167
42
0.4142136
0
VERTEX
8
0
10
112.2767433
20
-42.5287987
0
VERTEX
8
0
10
114.9795953
20
-29.8128799
42
0.4142136
0
VERTEX
8
0
10
114.5944773
20
-29.2198503
0
VERTEX
8
0
10
101.8785585
20
-26.5169983
42
0.4142136
0
VERTEX
8
0
10
101.2855289
20
-26.9021163
0
SEQEND
0
POLYLINE
8
0
6
CONTINUOUS
66
1
70
1
0
VERTEX
8
0
10
117.2163887
20
-43.5787528
42
0.4142136
0
VERTEX
8
0
10
117.6015067
20
-44.1717824
0
VERTEX
8
0
10
130.3174255
20
-46.8746344
42
0.4142136
0
VERTEX
8
0
10
130.9104551
20
-46.4895164
0
VERTEX
8
0
10
133.6133071
20
-33.7735976
42
0.4142136
0
VERTEX
8
0
10
133.2281891
20
-33.180568
0
VERTEX
8
0
10
120.5122703
20
-30.477716
42
0.4142136
0
VERTEX
8
0
10
119.9192407
20
-30.862834
0
SEQEND
0
POLYLINE
8
0
6
CONTINUOUS
66
1
70
1
0
VERTEX
8
0
10
160.7738646
20
-66.2658653
42
0.4142136
0
VERTEX
8
0
10
161.3668942
20
-66.6509833
0
VERTEX
8
0
10
174.082813
20
-63.9481313
42
0.4142136
0
VERTEX
8
0
10
174.467931
20
-63.3551017
0
VERTEX
8
0
10
171.765079
20
-50.6391829
42
0.4142136
0
VERTEX
8
0
10
171.1720494
20
-50.2540649
0
VERTEX
8
0
10
158.4561306
20
-52.9569169
42
0.4142136
0
VERTEX
8
0
10
158.0710126
20
-53.5499465
0
SEQEND
0
POLYLINE
8
0
6
CONTINUOUS
66
1
70
1
0
VERTEX
8
0
10
179.4075764
20
-62.3051476
42
0.4142136
0
VERTEX
8
0
10
180.000606
20
-62.6902656
0
VERTEX
8
0
10
192.7165248
20
-59.9874136
42
0.4142136
0
VERTEX
8
0
10
193.1016428
20
-59.394384
0
VERTEX
8
0
10
190.3987908
20
-46.6784652
42
0.4142136
0
VERTEX
8
0
10
189.8057612
20
-46.2933472
0
VERTEX
8
0
10
177.0898424
20
-48.9961992
42
0.4142136
0
VERTEX
8
0
10
176.7047244
20
-49.5892288
0
SEQEND
0
POLYLINE
8
0
6
CONTINUOUS
66
1
70
1
0
VERTEX
8
0
10
198.0412882
20
-58.3444299
42
0.4142136
0
VERTEX
8
0
10
198.6343178
20
-58.7295479
0
VERTEX
8
0
10
211.3502366
20
-56.0266959
42
0.4142136
0
VERTEX
8
0
10
211.7353546
20
-55.4336663
0
VERTEX
8
0
10
209.0325026
20
-42.7177475
42
0.4142136
0
VERTEX
8
0
10
208.439473
20
-42.3326295
0
VERTEX
8
0
10
195.7235542
20
-45.0354815
42
0.4142136
0
VERTEX
8
0
10
195.3384362
20
-45.6285111
0
SEQEND
0
POLYLINE
8
0
6
CONTINUOUS
66
1
70
1
0
VERTEX
8
0
10
216.675
20
-54.3837122
42
0.4142136
0
VERTEX
8
0
10
217.2680296
20
-54.7688302
0
VERTEX
8
0
10
229.9839484
20
-52.0659782
42
0.4142136
0
VERTEX
8
0
10
230.3690664
20
-51.4729486
0
VERTEX
8
0
10
227.6662144
20
-38.7570298
42
0.4142136
0
VERTEX
8
0
10
227.0731848
20
-38.3719118
0
VERTEX
8
0
10
214.357266
20
-41.0747638
42
0.4142136
0
VERTEX
8
0
10
213.972148
20
-41.6677934
0
SEQEND
0
POLYLINE
8
0
6
CONTINUOUS
66
1
70
1
0
VERTEX
8
0
10
235.3087118
20
-50.4229944
42
0.4142136
0
VERTEX
8
0
10
235.9017414
20
-50.8081124
0
VERTEX
8
0
10
248.6176602
20
-48.1052604
42
0.4142136
0
VERTEX
8
0
10
249.0027782
20
-47.5122308
0
VERTEX
8
0
10
246.2999262
20
-34.796312
42
0.4142136
0
VERTEX
8
0
10
245.7068966
20
-34.411194
0
VERTEX
8
0
10
232.9909778
20
-37.114046
42
0.4142136
0
VERTEX
8
0
10
232.6058598
20
-37.7070756
0
SEQEND
0
POLYLINE
8
0
6
CONTINUOUS
66
1
70
1
0
VERTEX
8
0
10
48.0376797
20
-48.3499526
42
0.4142136
0
VERTEX
8
0
10
48.4227977
20
-48.9429822
0
VERTEX
8
0
10
61.1387165
20
-51.6458342
42
0.4142136
0
VERTEX
8
0
10
61.7317461
20
-51.2607162
0
VERTEX
8
0
10
64.4345981
20
-38.5447974
42
0.4142136
0
VERTEX
8
0
10
64.0494801
20
-37.9517678
0
VERTEX
8
0
10
51.3335613
20
-35.2489158
42
0.4142136
0
VERTEX
8
0
10
50.7405317
20
-35.6340338
0
SEQEND
0
POLYLINE
8
0
6
CONTINUOUS
66
1
70
1
0
VERTEX
8
0
10
66.6713915
20
-52.3106703
42
0.4142136
0
VERTEX
8
0
10
67.0565095
20
-52.9036999
0
VERTEX
8
0
10
79.7724283
20
-55.6065519
42
0.4142136
0
VERTEX
8
0
10
80.3654579
20
-55.2214339
0
VERTEX
8
0
10
83.0683099
20
-42.5055151
42
0.4142136
0
VERTEX
8
0
10
82.6831919
20
-41.9124855
0
VERTEX
8
0
10
69.9672731
20
-39.2096335
42
0.4142136
0
VERTEX
8
0
10
69.3742435
20
-39.5947515
0
SEQEND
0
POLYLINE
8
0
6
CONTINUOUS
66
1
70
1
0
VERTEX
8
0
10
85.3051033
20
-56.271388
42
0.4142136
0
VERTEX
8
0
10
85.6902213
20
-56.8644176
0
VERTEX
8
0
10
98.4061401
20
-59.5672696
42
0.4142136
0
VERTEX
8
0
10
98.9991697
20
-59.1821516
0
VERTEX
8
0
10
101.7020217
20
-46.4662328
42
0.4142136
0
VERTEX
8
0
10
101.3169037
20
-45.8732032
0
VERTEX
8
0
10
88.6009849
20
-43.1703512
42
0.4142136
0
VERTEX
8
0
10
88.0079553
20
-43.5554692
0
SEQEND
0
POLYLINE
8
0
6
CONTINUOUS
66
1
70
1
0
VERTEX
8
0
10
103.9388151
20
-60.2321057
42
0.4142136
0
VERTEX
8
0
10
104.3239331
20
-60.8251353
0
VERTEX
8
0
10
117.0398519
20
-63.5279873
42
0.4142136
0
VERTEX
8
0
10
117.6328815
20
-63.1428693
0
VERTEX
8
0
10
120.3357335
20
-50.4269505
42
0.4142136
0
VERTEX
8
0
10
119.9506155
20
-49.8339209
0
VERTEX
8
0
10
107.2346967
20
-47.1310689
42
0.4142136
0
VERTEX
8
0
10
106.6416671
20
-47.5161869
0
SEQEND
0
POLYLINE
8
0
6
CONTINUOUS
66
1
70
1
0
VERTEX
8
0
10
169.3930103
20
-83.9093977
42
0.4142136
0
VERTEX
8
0
10
169.9860399
20
-84.2945157
0
VERTEX
8
0
10
182.7019587
20
-81.5916637
42
0.4142136
0
VERTEX
8
0
10
183.0870767
20
-80.9986341
0
VERTEX
8
0
10
180.3842247
20
-68.2827153
42
0.4142136
0
VERTEX
8
0
10
179.7911951
20
-67.8975973
0
VERTEX
8
0
10
167.0752763
20
-70.6004493
42
0.4142136
0
VERTEX
8
0
10
166.6901583
20
-71.1934789
0
SEQEND
0
POLYLINE
8
0
6
CONTINUOUS
66
1
70
1
0
VERTEX
8
0
10
188.0267221
20
-79.9486799
42
0.4142136
0
VERTEX
8
0
10
188.6197517
20
-80.3337979
0
VERTEX
8
0
10
201.3356705
20
-77.6309459
42
0.4142136
0
VERTEX
8
0
10
201.7207885
20
-77.0379163
0
VERTEX
8
0
10
199.0179365
20
-64.3219975
42
0.4142136
0
VERTEX
8
0
10
198.4249069
20
-63.9368795
0
VERTEX
8
0
10
185.7089881
20
-66.6397315
42
0.4142136
0
VERTEX
8
0
10
185.3238701
20
-67.2327611
0
SEQEND
0
POLYLINE
8
0
6
CONTINUOUS
66
1
70
1
0
VERTEX
8
0
10
206.6604339
20
-75.9879622
42
0.4142136
0
VERTEX
8
0
10
207.2534635
20
-76.3730802
0
VERTEX
8
0
10
219.9693823
20
-73.6702282
42
0.4142136
0
VERTEX
8
0
10
220.3545003
20
-73.0771986
0
VERTEX
8
0
10
217.6516483
20
-60.3612798
42
0.4142136
0
VERTEX
8
0
10
217.0586187
20
-59.9761618
0
VERTEX
8
0
10
204.3426999
20
-62.6790138
42
0.4142136
0
VERTEX
8
0
10
203.9575819
20
-63.2720434
0
SEQEND
0
POLYLINE
8
0
6
CONTINUOUS
66
1
70
1
0
VERTEX
8
0
10
225.2941457
20
-72.0272445
42
0.4142136
0
VERTEX
8
0
10
225.8871753
20
-72.4123625
0
VERTEX
8
0
10
238.6030941
20
-69.7095105
42
0.4142136
0
VERTEX
8
0
10
238.9882121
20
-69.1164809
0
VERTEX
8
0
10
236.2853601
20
-56.4005621
42
0.4142136
0
VERTEX
8
0
10
235.6923305
20
-56.0154441
0
VERTEX
8
0
10
222.9764117
20
-58.7182961
42
0.4142136
0
VERTEX
8
0
10
222.5912937
20
-59.3113257
0
SEQEND
0
POLYLINE
8
0
6
CONTINUOUS
66
1
70
1
0
VERTEX
8
0
10
48.73539
20
-67.9738438
42
0.4142136
0
VERTEX
8
0
10
49.120508
20
-68.5668734
0
VERTEX
8
0
10
61.8364268
20
-71.2697254
42
0.4142136
0
VERTEX
8
0
10
62.4294564
20
-70.8846074
0
VERTEX
8
0
10
65.1323084
20
-58.1686886
42
0.4142136
0
VERTEX
8
0
10
64.7471904
20
-57.575659
0
VERTEX
8
0
10
52.0312716
20
-54.872807
42
0.4142136
0
VERTEX
8
0
10
51.438242
20
-55.257925
0
SEQEND
0
POLYLINE
8
0
6
CONTINUOUS
66
1
70
1
0
VERTEX
8
0
10
67.3691018
20
-71.9345615
42
0.4142136
0
VERTEX
8
0
10
67.7542198
20
-72.5275911
0
VERTEX
8
0
10
80.4701386
20
-75.2304431
42
0.4142136
0
VERTEX
8
0
10
81.0631682
20
-74.8453251
0
VERTEX
8
0
10
83.7660202
20
-62.1294063
42
0.4142136
0
VERTEX
8
0
10
83.3809022
20
-61.5363767
0
VERTEX
8
0
10
70.6649834
20
-58.8335247
42
0.4142136
0
VERTEX
8
0
10
70.0719538
20
-59.2186427
0
SEQEND
0
POLYLINE
8
0
6
CONTINUOUS
66
1
70
1
0
VERTEX
8
0
10
86.0028136
20
-75.8952792
42
0.4142136
0
VERTEX
8
0
10
86.3879316
20
-76.4883088
0
VERTEX
8
0
10
99.1038504
20
-79.1911608
42
0.4142136
0
VERTEX
8
0
10
99.69688
20
-78.8060428
0
VERTEX
8
0
10
102.399732
20
-66.090124
42
0.4142136
0
VERTEX
8
0
10
102.014614
20
-65.4970944
0
VERTEX
8
0
10
89.2986952
20
-62.7942424
42
0.4142136
0
VERTEX
8
0
10
88.7056656
20
-63.1793604
0
SEQEND
0
POLYLINE
8
0
6
CONTINUOUS
66
1
70
1
0
VERTEX
8
0
10
104.6365254
20
-79.855997
42
0.4142136
0
VERTEX
8
0
10
105.0216434
20
-80.4490266
0
VERTEX
8
0
10
117.7375622
20
-83.1518786
42
0.4142136
0
VERTEX
8
0
10
118.3305918
20
-82.7667606
0
VERTEX
8
0
10
121.0334438
20
-70.0508418
42
0.4142136
0
VERTEX
8
0
10
120.6483258
20
-69.4578122
0
VERTEX
8
0
10
107.932407
20
-66.7549602
42
0.4142136
0
VERTEX
8
0
10
107.3393774
20
-67.1400782
0
SEQEND
0
POLYLINE
8
0
6
CONTINUOUS
66
1
70
1
0
VERTEX
8
0
10
178.0121559
20
-101.55293
42
0.4142136
0
VERTEX
8
0
10
178.6051855
20
-101.938048
0
VERTEX
8
0
10
191.3211043
20
-99.235196
42
0.4142136
0
VERTEX
8
0
10
191.7062223
20
-98.6421664
0
VERTEX
8
0
10
189.0033703
20
-85.9262476
42
0.4142136
0
VERTEX
8
0
10
188.4103407
20
-85.5411296
0
VERTEX
8
0
10
175.6944219
20
-88.2439816
42
0.4142136
0
VERTEX
8
0
10
175.3093039
20
-88.8370112
0
SEQEND
0
POLYLINE
8
0
6
CONTINUOUS
66
1
70
1
0
VERTEX
8
0
10
196.6458677
20
-97.5922123
42
0.4142136
0
VERTEX
8
0
10
197.2388973
20
-97.9773303
0
VERTEX
8
0
10
209.9548161
20
-95.2744783
42
0.4142136
0
VERTEX
8
0
10
210.3399341
20
-94.6814487
0
VERTEX
8
0
10
207.6370821
20
-81.9655299
42
0.4142136
0
VERTEX
8
0
10
207.0440525
20
-81.5804119
0
VERTEX
8
0
10
194.3281337
20
-84.2832639
42
0.4142136
0
VERTEX
8
0
10
193.9430157
20
-84.8762935
0
SEQEND
0
POLYLINE
8
0
6
CONTINUOUS
66
1
70
1
0
VERTEX
8
0
10
215.2795795
20
-93.6314946
42
0.4142136
0
VERTEX
8
0
10
215.8726091
20
-94.0166126
0
VERTEX
8
0
10
228.5885279
20
-91.3137606
42
0.4142136
0
VERTEX
8
0
10
228.9736459
20
-90.720731
0
VERTEX
8
0
10
226.2707939
20
-78.0048122
42
0.4142136
0
VERTEX
8
0
10
225.6777643
20
-77.6196942
0
VERTEX
8
0
10
212.9618455
20
-80.3225462
42
0.4142136
0
VERTEX
8
0
10
212.5767275
20
-80.9155758
0
SEQEND
0
POLYLINE
8
0
6
CONTINUOUS
66
1
70
1
0
VERTEX
8
0
10
233.9132913
20
-89.6707769
42
0.4142136
0
VERTEX
8
0
10
234.5063209
20
-90.0558949
0
VERTEX
8
0
10
247.2222397
20
-87.3530429
42
0.4142136
0
VERTEX
8
0
10
247.6073577
20
-86.7600133
0
VERTEX
8
0
10
244.9045057
20
-74.0440945
42
0.4142136
0
VERTEX
8
0
10
244.3114761
20
-73.6589765
0
VERTEX
8
0
10
231.5955573
20
-76.3618285
42
0.4142136
0
VERTEX
8
0
10
231.2104393
20
-76.9548581
0
SEQEND
0
POLYLINE
8
0
6
CONTINUOUS
66
1
70
1
0
VERTEX
8
0
10
54.0915282
20
-88.5879145
42
0.4142136
0
VERTEX
8
0
10
54.4766462
20
-89.1809441
0
VERTEX
8
0
10
67.192565
20
-91.8837961
42
0.4142136
0
VERTEX
8
0
10
67.7855946
20
-91.4986781
0
VERTEX
8
0
10
70.4884466
20
-78.7827593
42
0.4142136
0
VERTEX
8
0
10
70.1033286
20
-78.1897297
0
VERTEX
8
0
10
57.3874098
20
-75.4868777
42
0.4142136
0
VERTEX
8
0
10
56.7943802
20
-75.8719957
0
SEQEND
0
POLYLINE
8
0
6
CONTINUOUS
66
1
70
1
0
VERTEX
8
0
10
72.72524
20
-92.5486322
42
0.4142136
0
VERTEX
8
0
10
73.110358
20
-93.1416618
0
VERTEX
8
0
10
85.8262768
20
-95.8445138
42
0.4142136
0
VERTEX
8
0
10
86.4193064
20
-95.4593958
0
VERTEX
8
0
10
89.1221584
20
-82.743477
42
0.4142136
0
VERTEX
8
0
10
88.7370404
20
-82.1504474
0
VERTEX
8
0
10
76.0211216
20
-79.4475954
42
0.4142136
0
VERTEX
8
0
10
75.428092
20
-79.8327134
0
SEQEND
0
POLYLINE
8
0
6
CONTINUOUS
66
1
70
1
0
VERTEX
8
0
10
91.3589518
20
-96.5093499
42
0.4142136
0
VERTEX
8
0
10
91.7440698
20
-97.1023795
0
VERTEX
8
0
10
104.4599886
20
-99.8052315
42
0.4142136
0
VERTEX
8
0
10
105.0530182
20
-99.4201135
0
VERTEX
8
0
10
107.7558702
20
-86.7041947
42
0.4142136
0
VERTEX
8
0
10
107.3707522
20
-86.1111651
0
VERTEX
8
0
10
94.6548334
20
-83.4083131
42
0.4142136
0
VERTEX
8
0
10
94.0618038
20
-83.7934311
0
SEQEND
0
POLYLINE
8
0
6
CONTINUOUS
66
1
70
1
0
VERTEX
8
0
10
109.9926636
20
-100.4700676
42
0.4142136
0
VERTEX
8
0
10
110.3777816
20
-101.0630972
0
VERTEX
8
0
10
123.0937004
20
-103.7659492
42
0.4142136
0
VERTEX
8
0
10
123.68673
20
-103.3808312
0
VERTEX
8
0
10
126.389582
20
-90.6649124
42
0.4142136
0
VERTEX
8
0
10
126.004464
20
-90.0718828
0
VERTEX
8
0
10
113.2885452
20
-87.3690308
42
0.4142136
0
VERTEX
8
0
10
112.6955156
20
-87.7541488
0
SEQEND
0
POLYLINE
8
0
6
CONTINUOUS
66
1
70
1
0
VERTEX
8
0
10
188.9605156
20
-118.7013727
42
0.4142136
0
VERTEX
8
0
10
189.5535452
20
-119.0864907
0
VERTEX
8
0
10
202.269464
20
-116.3836387
42
0.4142136
0
VERTEX
8
0
10
202.654582
20
-115.7906091
0
VERTEX
8
0
10
199.95173
20
-103.0746903
42
0.4142136
0
VERTEX
8
0
10
199.3587004
20
-102.6895723
0
VERTEX
8
0
10
186.6427816
20
-105.3924243
42
0.4142136
0
VERTEX
8
0
10
186.2576636
20
-105.9854539
0
SEQEND
0
POLYLINE
8
0
6
CONTINUOUS
66
1
70
1
0
VERTEX
8
0
10
228.5571531
20
-110.2848475
42
0.4142136
0
VERTEX
8
0
10
229.1501827
20
-110.6699655
0
VERTEX
8
0
10
241.8661015
20
-107.9671135
42
0.4142136
0
VERTEX
8
0
10
242.2512195
20
-107.3740839
0
VERTEX
8
0
10
239.5483675
20
-94.6581651
42
0.4142136
0
VERTEX
8
0
10
238.9553379
20
-94.2730471
0
VERTEX
8
0
10
226.2394191
20
-96.9758991
42
0.4142136
0
VERTEX
8
0
10
225.8543011
20
-97.5689287
0
SEQEND
0
POLYLINE
8
0
6
CONTINUOUS
66
1
70
1
0
VERTEX
8
0
10
54.7892384
20
-108.2118057
42
0.4142136
0
VERTEX
8
0
10
55.1743564
20
-108.8048353
0
VERTEX
8
0
10
67.8902752
20
-111.5076873
42
0.4142136
0
VERTEX
8
0
10
68.4833048
20
-111.1225693
0
VERTEX
8
0
10
71.1861568
20
-98.4066505
42
0.4142136
0
VERTEX
8
0
10
70.8010388
20
-97.8136209
0
VERTEX
8
0
10
58.08512
20
-95.1107689
42
0.4142136
0
VERTEX
8
0
10
57.4920904
20
-95.4958869
0
SEQEND
0
POLYLINE
8
0
6
CONTINUOUS
66
1
70
1
0
VERTEX
8
0
10
87.398234
20
-115.1430617
42
0.4142136
0
VERTEX
8
0
10
87.783352
20
-115.7360913
0
VERTEX
8
0
10
100.4992708
20
-118.4389433
42
0.4142136
0
VERTEX
8
0
10
101.0923004
20
-118.0538253
0
VERTEX
8
0
10
103.7951524
20
-105.3379065
42
0.4142136
0
VERTEX
8
0
10
103.4100344
20
-104.7448769
0
VERTEX
8
0
10
90.6941156
20
-102.0420249
42
0.4142136
0
VERTEX
8
0
10
90.101086
20
-102.4271429
0
SEQEND
0
POLYLINE
8
0
6
CONTINUOUS
66
1
70
1
0
VERTEX
8
0
10
115.3488017
20
-121.0841383
42
0.4142136
0
VERTEX
8
0
10
115.7339197
20
-121.6771679
0
VERTEX
8
0
10
128.4498385
20
-124.3800199
42
0.4142136
0
VERTEX
8
0
10
129.0428681
20
-123.9949019
0
VERTEX
8
0
10
131.7457201
20
-111.2789831
42
0.4142136
0
VERTEX
8
0
10
131.3606021
20
-110.6859535
0
VERTEX
8
0
10
118.6446833
20
-107.9831015
42
0.4142136
0
VERTEX
8
0
10
118.0516537
20
-108.3682195
0
SEQEND
0
POLYLINE
8
0
6
CONTINUOUS
66
1
70
1
0
VERTEX
8
0
10
102.0830533
20
-120.3090976
42
0.4142136
0
VERTEX
8
0
10
102.4681712
20
-120.9021272
0
VERTEX
8
0
10
108.3370569
20
-122.1495973
42
0.4142136
0
VERTEX
8
0
10
108.9300865
20
-121.7644794
0
VERTEX
8
0
10
111.8408502
20
-108.0704129
42
0.4142136
0
VERTEX
8
0
10
111.4557322
20
-107.4773833
0
VERTEX
8
0
10
105.5868466
20
-106.2299132
42
0.4142136
0
VERTEX
8
0
10
104.993817
20
-106.6150311
0
SEQEND
0
POLYLINE
8
0
6
CONTINUOUS
66
1
70
1
0
VERTEX
8
0
10
181.1227295
20
-122.4120267
42
0.4142136
0
VERTEX
8
0
10
181.7157592
20
-122.7971447
0
VERTEX
8
0
10
187.5846447
20
-121.5496746
42
0.4142136
0
VERTEX
8
0
10
187.9697627
20
-120.956645
0
VERTEX
8
0
10
185.058999
20
-107.2625786
42
0.4142136
0
VERTEX
8
0
10
184.4659694
20
-106.8774606
0
VERTEX
8
0
10
178.5970838
20
-108.1249307
42
0.4142136
0
VERTEX
8
0
10
178.2119658
20
-108.7179604
0
SEQEND
0
POLYLINE
8
0
6
CONTINUOUS
66
1
70
1
0
VERTEX
8
0
10
204.4769816
20
-117.4479272
42
0.4142136
0
VERTEX
8
0
10
205.0700113
20
-117.8330452
0
VERTEX
8
0
10
210.9388968
20
-116.5855751
42
0.4142136
0
VERTEX
8
0
10
211.3240148
20
-115.9925454
0
VERTEX
8
0
10
208.4132512
20
-102.2984791
42
0.4142136
0
VERTEX
8
0
10
207.8202215
20
-101.9133611
0
VERTEX
8
0
10
201.951336
20
-103.1608312
42
0.4142136
0
VERTEX
8
0
10
201.566218
20
-103.7538608
0
SEQEND
0
POLYLINE
8
0
6
CONTINUOUS
66
1
70
1
0
VERTEX
8
0
10
78.7288012
20
-115.3449981
42
0.4142136
0
VERTEX
8
0
10
79.1139191
20
-115.9380277
0
VERTEX
8
0
10
84.9828048
20
-117.1854978
42
0.4142136
0
VERTEX
8
0
10
85.5758344
20
-116.8003799
0
VERTEX
8
0
10
88.486598
20
-103.1063134
42
0.4142136
0
VERTEX
8
0
10
88.1014801
20
-102.5132838
0
VERTEX
8
0
10
82.2325944
20
-101.2658137
42
0.4142136
0
VERTEX
8
0
10
81.6395648
20
-101.6509316
0
SEQEND
0
POLYLINE
8
0
6
CONTINUOUS
66
1
70
1
0
VERTEX
8
0
10
279.837
20
-33.265
42
0.4142136
0
VERTEX
8
0
10
280.337
20
-33.765
0
VERTEX
8
0
10
286.337
20
-33.765
42
0.4142136
0
VERTEX
8
0
10
286.837
20
-33.265
0
VERTEX
8
0
10
286.837
20
-19.265
42
0.4142136
0
VERTEX
8
0
10
286.337
20
-18.765
0
VERTEX
8
0
10
280.337
20
-18.765
42
0.4142136
0
VERTEX
8
0
10
279.837
20
-19.265
0
SEQEND
0
POLYLINE
8
0
6
CONTINUOUS
66
1
70
1
0
VERTEX
8
0
10
303.713
20
-33.265
42
0.4142136
0
VERTEX
8
0
10
304.213
20
-33.765
0
VERTEX
8
0
10
310.213
20
-33.765
42
0.4142136
0
VERTEX
8
0
10
310.713
20
-33.265
0
VERTEX
8
0
10
310.713
20
-19.265
42
0.4142136
0
VERTEX
8
0
10
310.213
20
-18.765
0
VERTEX
8
0
10
304.213
20
-18.765
42
0.4142136
0
VERTEX
8
0
10
303.713
20
-19.265
0
SEQEND
0
POLYLINE
8
0
6
CONTINUOUS
66
1
70
1
0
VERTEX
8
0
10
286.98075
20
-71.365
42
0.4142136
0
VERTEX
8
0
10
287.48075
20
-71.865
0
VERTEX
8
0
10
293.48075
20
-71.865
42
0.4142136
0
VERTEX
8
0
10
293.98075
20
-71.365
0
VERTEX
8
0
10
293.98075
20
-57.365
42
0.4142136
0
VERTEX
8
0
10
293.48075
20
-56.865
0
VERTEX
8
0
10
287.48075
20
-56.865
42
0.4142136
0
VERTEX
8
0
10
286.98075
20
-57.365
0
SEQEND
0
POLYLINE
8
0
6
CONTINUOUS
66
1
70
1
0
VERTEX
8
0
10
310.85675
20
-71.365
42
0.4142136
0
VERTEX
8
0
10
311.35675
20
-71.865
0
VERTEX
8
0
10
317.35675
20
-71.865
42
0.4142136
0
VERTEX
8
0
10
317.85675
20
-71.365
0
VERTEX
8
0
10
317.85675
20
-57.365
42
0.4142136
0
VERTEX
8
0
10
317.35675
20
-56.865
0
VERTEX
8
0
10
311.35675
20
-56.865
42
0.4142136
0
VERTEX
8
0
10
310.85675
20
-57.365
0
SEQEND
0
POLYLINE
8
0
6
CONTINUOUS
66
1
70
1
0
VERTEX
8
0
10
-7.34175
20
-90.415
42
0.4142136
0
VERTEX
8
0
10
-6.84175
20
-90.915
0
VERTEX
8
0
10
-0.84175
20
-90.915
42
0.4142136
0
VERTEX
8
0
10
-0.34175
20
-90.415
0
VERTEX
8
0
10
-0.34175
20
-76.415
42
0.4142136
0
VERTEX
8
0
10
-0.84175
20
-75.915
0
VERTEX
8
0
10
-6.84175
20
-75.915
42
0.4142136
0
VERTEX
8
0
10
-7.34175
20
-76.415
0
SEQEND
0
POLYLINE
8
0
6
CONTINUOUS
66
1
70
1
0
VERTEX
8
0
10
16.53425
20
-90.415
42
0.4142136
0
VERTEX
8
0
10
17.03425
20
-90.915
0
VERTEX
8
0
10
23.03425
20
-90.915
42
0.4142136
0
VERTEX
8
0
10
23.53425
20
-90.415
0
VERTEX
8
0
10
23.53425
20
-76.415
42
0.4142136
0
VERTEX
8
0
10
23.03425
20
-75.915
0
VERTEX
8
0
10
17.03425
20
-75.915
42
0.4142136
0
VERTEX
8
0
10
16.53425
20
-76.415
0
SEQEND
0
POLYLINE
8
outline
6
CONTINUOUS
66
1
70
1
0
VERTEX
8
outline
10
-12.34175
20
-128.3909461
42
0.4142136
0
VERTEX
8
outline
10
-11.34175
20
-129.3909461
0
VERTEX
8
outline
10
369.14
20
-129.3909461
42
0.4142136
0
VERTEX
8
outline
10
370.14
20
-128.3909461
0
VERTEX
8
outline
10
370.14
20
11
42
0.4142136
0
VERTEX
8
outline
10
369.14
20
12
0
VERTEX
8
outline
10
-11.34175
20
12
42
0.4142136
0
VERTEX
8
outline
10
-12.34175
20
11
0
SEQEND
0
ENDSEC
0
EOF